<svg width="64" height="64" viewBox="0 0 64 64" fill="none" xmlns="http://www.w3.org/2000/svg">
<rect width="64" height="64" rx="32" fill="#EFEFEF"/>
<path fill-rule="evenodd" clip-rule="evenodd" d="M31.9712 34.5868V42.1181L15.0081 32.8814V26.045L31.9712 34.5868Z" fill="#231F1F" fill-opacity="0.0716886"/>
<path fill-rule="evenodd" clip-rule="evenodd" d="M48.5708 32.2864L31.9712 40.9708L31.786 48.2302L48.5708 39.0937V32.2864Z" fill="#231F1F" fill-opacity="0.0716886"/>
<path fill-rule="evenodd" clip-rule="evenodd" d="M32.6017 14.1544L49.3667 23.871C50.2108 24.3357 50.2108 25.5337 49.3667 25.9984L32.6017 35.2277C32.2277 35.4336 31.7723 35.4336 31.3982 35.2277L16.4697 27.0094L16.4697 31.528L31.9998 40.0774L48.163 31.1797C48.9708 30.735 49.9621 31.2922 49.9985 32.1922L49.9996 32.2435V39.5193C50.0022 39.617 49.9928 39.7141 49.9722 39.8088C49.9558 39.8842 49.9323 39.9571 49.9025 40.0267C49.8059 40.2526 49.6398 40.4515 49.4141 40.5888L49.4094 40.5916C49.3959 40.5997 49.3823 40.6076 49.3685 40.6153L49.3667 40.6163L32.6018 49.8456C32.2489 50.0399 31.8232 50.051 31.4617 49.8782L31.4105 49.8522L14.6456 40.8666C14.0463 40.5454 13.8245 39.8058 14.15 39.2146C14.4668 38.6395 15.1852 38.4168 15.7757 38.701L15.8246 38.7258L31.9921 47.391L47.5298 38.8375L47.5297 34.3183L32.6016 42.5365C32.2445 42.733 31.8133 42.742 31.4495 42.5633L31.398 42.5365L14.6331 33.3072C14.2593 33.1014 14.0214 32.7201 14.0014 32.3009L14 32.2435L14 24.9345C14 24.8578 14.0072 24.7827 14.021 24.71C14.0767 24.4112 14.2446 24.1302 14.5248 23.9378C14.564 23.9106 14.6049 23.8855 14.6473 23.8629L31.3982 14.1544C31.7723 13.9485 32.2277 13.9485 32.6017 14.1544Z" fill="#CCCCCC"/>
</svg>
