<svg xmlns="http://www.w3.org/2000/svg" fill="none" viewBox="0 0 28 28" class="design-iconfont">
  <path d="M24.8411 10.4431C24.7928 10.6474 24.6735 10.9468 24.5063 11.3078H24.5099L24.4907 11.3413C23.5147 13.4329 20.9663 17.535 20.9663 17.535C20.9663 17.535 20.963 17.5253 20.953 17.5093L20.2083 18.8077H23.7973L16.9425 27.9372L18.4984 21.7267H15.6744L16.6557 17.6199C15.8618 17.8116 14.9235 18.0753 13.8121 18.4331C13.8121 18.4331 12.3087 19.3149 9.48139 16.7368C9.48139 16.7368 7.57455 15.0543 8.68011 14.6338C9.15031 14.455 10.963 14.2283 12.3892 14.0352C14.3165 13.7742 15.5022 13.636 15.5022 13.636C15.5022 13.636 9.55995 13.7251 8.15027 13.503C6.74051 13.281 4.95217 10.9252 4.57124 8.85403C4.57124 8.85403 3.98207 7.71708 5.83819 8.25537C7.69431 8.79366 15.3772 10.3508 15.3772 10.3508C15.3772 10.3508 5.38516 7.2827 4.72024 6.53419C4.05546 5.78568 2.7636 2.44841 2.93169 0.397706C2.93169 0.397706 3.00456 -0.113568 3.52789 0.0234517C3.52789 0.0234517 10.9148 3.40423 15.9659 5.25494C21.0169 7.10565 25.4085 8.04696 24.8411 10.4431Z" fill="#3296FA"/>
</svg>
