<svg xmlns="http://www.w3.org/2000/svg" fill="none" viewBox="0 0 28 28" class="design-iconfont">
  <g clip-path="url(#mn1jnl4c5__clip0_1155_34378)">
    <path d="M18.8136 9.18737C18.6042 8.98582 18.466 8.72168 18.4198 8.43475C18.3736 8.14781 18.4219 7.85363 18.5574 7.59652C18.6929 7.33942 18.9083 7.13331 19.1711 7.00926C19.4339 6.88521 19.73 6.84993 20.0146 6.90875C20.049 6.91569 20.0845 6.91427 20.1182 6.90461C20.1519 6.89495 20.1828 6.87734 20.2083 6.85324L27.6162 0L6.13647 14.1069L13.3506 14.65L18.8136 9.18737Z" fill="#00D3B4"/>
    <path d="M0 7.97621L6.13649 14.1069L27.6163 0L0 7.97621Z" fill="#00EED4"/>
    <path d="M21.1471 7.79342C21.1234 7.81887 21.1062 7.8496 21.0967 7.88306C21.0873 7.91652 21.086 7.95174 21.093 7.9858C21.1522 8.27053 21.1172 8.5668 20.9933 8.82992C20.8694 9.09303 20.6633 9.30872 20.4061 9.44444C20.1489 9.58016 19.8545 9.62855 19.5674 9.58231C19.2802 9.53607 19.0159 9.39771 18.8143 9.18811L13.3517 14.6494L13.8904 21.868L28.0017 0.385498L21.1471 7.79342Z" fill="#0069FF"/>
    <path d="M28.0017 0.385498L13.8904 21.8666L20.0241 28.0001L28.0017 0.385498Z" fill="#007FFF"/>
  </g>
  <defs>
    <clipPath id="mn1jnl4c5__clip0_1155_34378">
      <path fill="#fff" d="M0 0H28V28H0z"/>
    </clipPath>
  </defs>
</svg>
