<svg xmlns="http://www.w3.org/2000/svg" fill="none" viewBox="0 0 17 16" class="design-iconfont">
  <path d="M4.14192 2.95533C5.35162 1.90711 6.89924 1.3311 8.49992 1.33333C12.1819 1.33333 15.1666 4.318 15.1666 8C15.1666 9.424 14.7199 10.744 13.9599 11.8267L11.8333 8H13.8333C13.8333 6.95442 13.5261 5.93187 12.9497 5.05951C12.3733 4.18714 11.5532 3.50344 10.5914 3.09342C9.62954 2.68339 8.56839 2.56514 7.53989 2.75335C6.51138 2.94156 5.56089 3.42793 4.80659 4.152L4.14192 2.95533ZM12.8579 13.0447C11.6482 14.0929 10.1006 14.6689 8.49992 14.6667C4.81792 14.6667 1.83325 11.682 1.83325 8C1.83325 6.576 2.27992 5.256 3.03992 4.17333L5.16659 8H3.16659C3.1665 9.04559 3.47375 10.0681 4.05014 10.9405C4.62653 11.8129 5.44663 12.4966 6.40847 12.9066C7.3703 13.3166 8.43144 13.4349 9.45995 13.2467C10.4885 13.0584 11.4389 12.5721 12.1933 11.848L12.8579 13.0447Z" fill="#315CEC"/>
</svg>
