<svg xmlns="http://www.w3.org/2000/svg" viewBox="0 0 24 24"><g fill-rule="evenodd" fill="none"><path d="M0 0h24v24H0z"/><path fill="#2996F7" d="M15.763 0 23 7.237V22a2 2 0 0 1-2 2H3a2 2 0 0 1-2-2V2a2 2 0 0 1 2-2h12.763Z"/><path fill="#FFF" fill-opacity=".401" d="M17.763 7.237a2 2 0 0 1-2-2V0L23 7.237h-5.237Z"/><path stroke-width="1.5" stroke-linejoin="round" stroke-linecap="round" stroke="#FFF" opacity=".802" d="M12 10.338v9.674m-2.157-6.509-2.135 6.509m6.449-6.509 2.135 6.509"/><rect rx="1" height="7.864" width="12.714" y="10.583" x="5.643" fill="#FFF"/></g></svg>