<svg xmlns="http://www.w3.org/2000/svg" fill="none" viewBox="0 0 24 24"><path data-follow-fill="#3B90F5" fill="#3B90F5" d="M1.5 1.5A1.5 1.5 0 0 1 3 0h7.5v1.5H12V3h-1.5v1.5H12V6h-1.5v1.5H12V9h-1.5v3h3V7.5H12V6h1.5V4.5H12V3h1.5V1.5H12V0h9a1.5 1.5 0 0 1 1.5 1.5v21A1.5 1.5 0 0 1 21 24H3a1.5 1.5 0 0 1-1.5-1.5v-21Zm5.637 13.18v.675h2.586L6.935 18.88v.621h3.976v-.675H7.968l2.78-3.517v-.627h-3.61Zm4.413 0v4.82h.79v-4.82h-.79Zm1.733 4.82h.79v-1.85h1.195c1.174 0 1.762-.499 1.762-1.491 0-.986-.588-1.478-1.749-1.478h-1.998V19.5Zm1.938-4.145h-1.148v1.62h1.148c.35 0 .607-.067.77-.189.161-.128.242-.337.242-.627s-.088-.493-.25-.614c-.162-.129-.418-.19-.762-.19Z"/></svg>