<svg xmlns="http://www.w3.org/2000/svg" fill="none" viewBox="0 0 24 24"><path data-follow-fill="#3B90F5" fill="#3B90F5" d="M1.5 1.5A1.5 1.5 0 0 1 3 0h7.5v1.5H12V3h-1.5v1.5H12V6h-1.5v1.5H12V9h-1.5v3h3V7.5H12V6h1.5V4.5H12V3h1.5V1.5H12V0h9a1.5 1.5 0 0 1 1.5 1.5v21A1.5 1.5 0 0 1 21 24H3a1.5 1.5 0 0 1-1.5-1.5v-21Zm4.35 13.18v4.82h.79v-1.964h1.25c.27 0 .48.054.62.175.136.115.217.304.244.567l.06.594c.028.27.095.48.21.628h.857c-.162-.175-.263-.412-.29-.709l-.081-.776c-.054-.473-.29-.75-.709-.844v-.013a1.05 1.05 0 0 0 .614-.425c.135-.196.203-.419.203-.669 0-.459-.155-.81-.452-1.053-.284-.222-.675-.33-1.168-.33H5.85Zm.79.675h1.25c.324 0 .56.054.709.176.148.115.222.304.222.567 0 .243-.074.432-.222.567-.162.128-.399.196-.71.196H6.64v-1.506Zm5.287-.675-1.843 4.82h.844l.439-1.208h2.018l.439 1.208h.844l-1.843-4.82h-.898Zm-.324 2.964.763-2.113h.027l.756 2.113h-1.546Zm3.535-2.963V19.5h.79v-1.964h1.249c.27 0 .479.054.62.175.136.115.217.304.244.567l.06.594c.027.27.095.48.21.628h.857c-.162-.175-.263-.412-.29-.709l-.081-.776c-.054-.473-.29-.75-.71-.844v-.013c.257-.068.467-.21.615-.425.135-.196.203-.419.203-.669 0-.459-.156-.81-.453-1.053-.283-.222-.675-.33-1.167-.33h-2.147Zm.79.675h1.249c.324 0 .56.053.708.175.149.115.223.304.223.567 0 .243-.074.432-.223.567-.162.128-.398.196-.708.196h-1.25v-1.506Z"/></svg>