<svg width="497" height="78" viewBox="0 0 497 78" fill="none" xmlns="http://www.w3.org/2000/svg">
<path d="M477.273 64.0858C474.231 64.0858 471.447 63.7091 468.92 62.9557C466.439 62.2024 464.216 61.0958 462.251 59.6362C460.332 58.1765 458.601 56.4108 457.056 54.339L463.655 46.7818C465.948 49.9836 468.218 52.1731 470.464 53.3502C472.757 54.4803 475.237 55.0453 477.905 55.0453C479.356 55.0453 480.643 54.857 481.766 54.4803C482.936 54.0565 483.848 53.468 484.503 52.7146C485.159 51.9612 485.486 51.0666 485.486 50.0307C485.486 49.2773 485.322 48.5946 484.995 47.9825C484.667 47.3233 484.199 46.7582 483.591 46.2874C482.983 45.7694 482.257 45.3221 481.415 44.9454C480.572 44.5217 479.636 44.1685 478.607 43.886C477.577 43.5564 476.454 43.2974 475.237 43.1091C472.617 42.497 470.324 41.7671 468.358 40.9196C466.392 40.025 464.755 38.942 463.444 37.6707C462.134 36.3523 461.151 34.8691 460.496 33.2211C459.887 31.5731 459.583 29.7132 459.583 27.6414C459.583 25.5226 460.051 23.5685 460.987 21.7793C461.923 19.9429 463.21 18.3655 464.848 17.0471C466.533 15.7287 468.452 14.7164 470.604 14.0101C472.804 13.3038 475.12 12.9507 477.554 12.9507C480.549 12.9507 483.17 13.3038 485.416 14.0101C487.662 14.6693 489.604 15.6346 491.242 16.9059C492.927 18.1772 494.331 19.731 495.454 21.5674L488.786 28.0652C487.803 26.7468 486.726 25.6403 485.556 24.7457C484.433 23.851 483.193 23.1918 481.836 22.7681C480.526 22.2972 479.168 22.0618 477.764 22.0618C476.22 22.0618 474.886 22.2737 473.763 22.6974C472.64 23.0741 471.751 23.6391 471.096 24.3925C470.487 25.1459 470.183 26.0641 470.183 27.147C470.183 27.9946 470.394 28.7479 470.815 29.4071C471.236 30.0663 471.844 30.6549 472.64 31.1729C473.436 31.6437 474.395 32.0675 475.518 32.4442C476.641 32.8209 477.881 33.1505 479.239 33.433C481.813 33.9509 484.129 34.6337 486.188 35.4812C488.247 36.3287 490.002 37.3646 491.453 38.5889C492.951 39.766 494.097 41.1786 494.893 42.8266C495.688 44.4275 496.086 46.2403 496.086 48.265C496.086 51.6081 495.29 54.4568 493.699 56.811C492.108 59.1653 489.909 60.9781 487.101 62.2494C484.293 63.4737 481.017 64.0858 477.273 64.0858Z" fill="white"/>
<path d="M429.626 64.0858C426.022 64.0858 422.7 63.4501 419.658 62.1788C416.616 60.9075 413.948 59.1418 411.655 56.8817C409.409 54.5745 407.677 51.867 406.461 48.7594C405.244 45.6046 404.636 42.1909 404.636 38.5182C404.636 34.7985 405.244 31.4083 406.461 28.3477C407.677 25.2401 409.409 22.5326 411.655 20.2254C413.948 17.9182 416.616 16.129 419.658 14.8577C422.7 13.5863 426.022 12.9507 429.626 12.9507C433.276 12.9507 436.599 13.5863 439.594 14.8577C442.636 16.129 445.28 17.9182 447.526 20.2254C449.819 22.5326 451.574 25.2401 452.791 28.3477C454.008 31.4554 454.616 34.8455 454.616 38.5182C454.616 42.1909 454.008 45.5811 452.791 48.6887C451.574 51.7964 449.819 54.5038 447.526 56.811C445.28 59.1182 442.636 60.9075 439.594 62.1788C436.599 63.4501 433.276 64.0858 429.626 64.0858ZM429.626 54.0565C431.685 54.0565 433.58 53.6798 435.312 52.9265C437.09 52.1731 438.611 51.0901 439.875 49.6775C441.138 48.265 442.121 46.617 442.823 44.7335C443.572 42.8501 443.946 40.7783 443.946 38.5182C443.946 36.2581 443.572 34.1863 442.823 32.3029C442.121 30.4195 441.138 28.795 439.875 27.4295C438.611 26.017 437.09 24.934 435.312 24.1806C433.58 23.3802 431.685 22.9799 429.626 22.9799C427.567 22.9799 425.671 23.3802 423.94 24.1806C422.208 24.934 420.687 26.017 419.377 27.4295C418.067 28.795 417.061 30.4195 416.359 32.3029C415.703 34.1863 415.376 36.2581 415.376 38.5182C415.376 40.7783 415.703 42.8501 416.359 44.7335C417.061 46.617 418.067 48.265 419.377 49.6775C420.687 51.0901 422.208 52.1731 423.94 52.9265C425.671 53.6798 427.567 54.0565 429.626 54.0565Z" fill="white"/>
<path d="M90.6554 63.44V22.4754H80.6158C78.4067 22.4754 76.6158 20.6846 76.6158 18.4754V14H110.242C112.451 14 114.242 15.7909 114.242 18V22.4754H99.7811V59.44C99.7811 61.6492 97.9902 63.44 95.7811 63.44H90.6554Z" fill="white"/>
<path d="M380.532 63.44C377.079 63.44 374.021 62.7076 371.359 61.2427C368.738 59.7778 366.679 57.7897 365.181 55.2785C363.725 52.7254 362.997 49.8165 362.997 46.5519C362.997 43.957 363.413 41.5922 364.245 39.4577C365.077 37.3231 366.221 35.4816 367.677 33.933C369.175 32.3425 370.943 31.1287 372.981 30.2917C375.061 29.4127 377.328 28.9733 379.783 28.9733C381.946 28.9733 383.963 29.3918 385.835 30.2289C387.707 31.066 389.33 32.217 390.703 33.6818C392.075 35.1049 393.115 36.8209 393.823 38.8299C394.571 40.797 394.925 42.9525 394.883 45.2963L394.821 47.9959H368.176L366.741 42.7223H388.394L387.395 43.7896V42.4084C387.271 41.1109 386.855 39.9809 386.147 39.0182C385.44 38.0137 384.525 37.2394 383.402 36.6953C382.32 36.1094 381.114 35.8164 379.783 35.8164C377.744 35.8164 376.018 36.214 374.604 37.0092C373.231 37.8045 372.191 38.9554 371.484 40.4622C370.776 41.9271 370.423 43.7686 370.423 45.9869C370.423 48.1215 370.86 49.984 371.733 51.5744C372.648 53.1649 373.917 54.3996 375.54 55.2785C377.204 56.1156 379.138 56.5341 381.343 56.5341C382.882 56.5341 384.296 56.283 385.586 55.7807C386.875 55.2785 388.269 54.3786 389.767 53.0812L393.573 58.4175C392.45 59.4639 391.16 60.3638 389.704 61.1171C388.29 61.8286 386.792 62.3937 385.211 62.8122C383.631 63.2307 382.071 63.44 380.532 63.44Z" fill="white"/>
<path d="M342.753 62.8122V29.7266H350.303L350.428 40.2738L349.367 37.8882C349.825 36.214 350.615 34.7073 351.739 33.3679C352.862 32.0286 354.151 30.9823 355.607 30.2289C357.105 29.4337 358.665 29.036 360.287 29.036C360.994 29.036 361.66 29.0988 362.284 29.2244C362.95 29.3499 363.49 29.4964 363.906 29.6639L361.847 38.1393C361.39 37.8882 360.828 37.6789 360.162 37.5115C359.497 37.3441 358.831 37.2604 358.166 37.2604C357.126 37.2604 356.127 37.4696 355.171 37.8882C354.255 38.2648 353.444 38.8089 352.737 39.5205C352.03 40.232 351.468 41.0691 351.052 42.0317C350.678 42.9525 350.491 43.9988 350.491 45.1708V62.8122H342.753Z" fill="white"/>
<path d="M317.632 63.44C314.928 63.44 312.474 62.6866 310.269 61.1799C308.064 59.6732 306.296 57.6223 304.965 55.0274C303.634 52.4324 302.968 49.4817 302.968 46.1752C302.968 42.8688 303.634 39.9181 304.965 37.3231C306.296 34.7282 308.106 32.6983 310.394 31.2334C312.682 29.7685 315.261 29.036 318.131 29.036C319.795 29.036 321.314 29.2872 322.686 29.7894C324.059 30.2498 325.265 30.9195 326.305 31.7984C327.345 32.6773 328.198 33.6818 328.864 34.8119C329.571 35.942 330.049 37.1557 330.299 38.4532L328.614 38.0137V29.7266H336.352V62.8122H328.552V54.9018L330.361 54.5879C330.07 55.718 329.529 56.8271 328.739 57.9153C327.99 58.9616 327.033 59.9034 325.869 60.7404C324.745 61.5357 323.477 62.1844 322.062 62.6866C320.69 63.1889 319.213 63.44 317.632 63.44ZM319.754 56.5969C321.542 56.5969 323.123 56.1574 324.496 55.2785C325.869 54.3996 326.929 53.1858 327.678 51.6372C328.469 50.0467 328.864 48.2261 328.864 46.1752C328.864 44.1663 328.469 42.3875 327.678 40.8389C326.929 39.2903 325.869 38.0765 324.496 37.1976C323.123 36.3186 321.542 35.8792 319.754 35.8792C317.965 35.8792 316.384 36.3186 315.011 37.1976C313.68 38.0765 312.64 39.2903 311.891 40.8389C311.142 42.3875 310.768 44.1663 310.768 46.1752C310.768 48.2261 311.142 50.0467 311.891 51.6372C312.64 53.1858 313.68 54.3996 315.011 55.2785C316.384 56.1574 317.965 56.5969 319.754 56.5969Z" fill="white"/>
<path d="M269.687 62.8122V16.3543H277.299V36.507L275.864 37.2603C276.28 35.7536 277.091 34.3933 278.298 33.1796C279.504 31.924 280.939 30.9195 282.603 30.1661C284.267 29.4127 285.973 29.036 287.72 29.036C290.216 29.036 292.296 29.5383 293.96 30.5428C295.666 31.5473 296.934 33.054 297.766 35.063C298.64 37.072 299.077 39.5832 299.077 42.5967V62.8122H291.402V43.1618C291.402 41.4876 291.173 40.1064 290.715 39.0182C290.258 37.8882 289.55 37.072 288.594 36.5698C287.637 36.0256 286.472 35.7745 285.099 35.8164C283.976 35.8164 282.936 36.0047 281.979 36.3814C281.064 36.7162 280.253 37.2185 279.546 37.8882C278.88 38.516 278.339 39.2484 277.923 40.0855C277.549 40.9226 277.362 41.8434 277.362 42.8478V62.8122H273.555C272.807 62.8122 272.099 62.8122 271.434 62.8122C270.81 62.8122 270.227 62.8122 269.687 62.8122Z" fill="white"/>
<path d="M252.88 63.44C249.968 63.44 247.347 62.9587 245.018 61.9961C242.73 60.9916 240.858 59.5685 239.402 57.7269L244.394 53.3951C245.642 54.8181 247.035 55.8435 248.574 56.4713C250.114 57.0991 251.736 57.413 253.442 57.413C254.149 57.413 254.773 57.3293 255.314 57.1619C255.896 56.9945 256.395 56.7434 256.811 56.4085C257.227 56.0737 257.539 55.697 257.747 55.2785C257.997 54.8181 258.122 54.3158 258.122 53.7717C258.122 52.7673 257.747 51.972 256.998 51.3861C256.582 51.0931 255.917 50.7792 255.002 50.4444C254.128 50.1095 252.984 49.7747 251.57 49.4399C249.323 48.8539 247.451 48.1842 245.954 47.4309C244.456 46.6356 243.291 45.7567 242.459 44.7941C241.752 43.9988 241.211 43.099 240.837 42.0945C240.504 41.09 240.338 40.0018 240.338 38.8299C240.338 37.365 240.65 36.0466 241.274 34.8747C241.939 33.6609 242.834 32.6146 243.957 31.7356C245.08 30.8567 246.39 30.187 247.888 29.7266C249.386 29.2662 250.946 29.036 252.568 29.036C254.232 29.036 255.834 29.2453 257.373 29.6639C258.954 30.0824 260.41 30.6893 261.741 31.4845C263.114 32.2379 264.278 33.1587 265.235 34.2469L260.992 38.9554C260.202 38.2021 259.328 37.5324 258.371 36.9464C257.456 36.3605 256.52 35.9001 255.563 35.5653C254.606 35.1886 253.712 35.0002 252.88 35.0002C252.09 35.0002 251.382 35.0839 250.758 35.2514C250.134 35.3769 249.614 35.5862 249.198 35.8792C248.782 36.1721 248.45 36.5488 248.2 37.0092C247.992 37.4278 247.888 37.93 247.888 38.516C247.93 39.0182 248.054 39.4995 248.262 39.9599C248.512 40.3785 248.845 40.7342 249.261 41.0272C249.718 41.3202 250.405 41.655 251.32 42.0317C252.235 42.4084 253.421 42.7641 254.877 43.099C256.915 43.6431 258.621 44.25 259.994 44.9196C261.366 45.5893 262.448 46.3636 263.238 47.2425C264.029 47.9959 264.59 48.8748 264.923 49.8793C265.256 50.8838 265.422 51.993 265.422 53.2067C265.422 55.1739 264.861 56.9317 263.738 58.4803C262.656 60.0289 261.158 61.2427 259.245 62.1216C257.373 63.0005 255.251 63.44 252.88 63.44Z" fill="white"/>
<path d="M185.893 62.8122V29.7266H193.443L193.567 36.3814L192.32 36.8837C192.694 35.7954 193.255 34.791 194.004 33.8702C194.753 32.9075 195.647 32.0914 196.687 31.4217C197.727 30.7102 198.83 30.1661 199.994 29.7894C201.159 29.3709 202.345 29.1616 203.551 29.1616C205.34 29.1616 206.921 29.4546 208.293 30.0405C209.708 30.5846 210.872 31.4636 211.788 32.6773C212.744 33.8911 213.452 35.4397 213.909 37.3231L212.724 37.072L213.223 36.0675C213.68 35.063 214.325 34.1631 215.157 33.3679C215.989 32.5308 216.925 31.7984 217.965 31.1706C219.005 30.5009 220.087 29.9987 221.21 29.6638C222.375 29.329 223.518 29.1616 224.642 29.1616C227.138 29.1616 229.217 29.6638 230.881 30.6683C232.545 31.6728 233.793 33.2005 234.625 35.2513C235.457 37.3022 235.873 39.8344 235.873 42.8478V62.8122H228.136V43.3501C228.136 41.6759 227.907 40.2947 227.45 39.2065C227.034 38.1183 226.368 37.3231 225.453 36.8209C224.579 36.2768 223.477 36.0047 222.146 36.0047C221.106 36.0047 220.107 36.1931 219.151 36.5697C218.235 36.9046 217.445 37.4068 216.779 38.0765C216.114 38.7043 215.594 39.4367 215.22 40.2738C214.845 41.1109 214.658 42.0317 214.658 43.0362V62.8122H206.921V43.2873C206.921 41.6969 206.692 40.3785 206.234 39.3321C205.777 38.2439 205.111 37.4278 204.238 36.8837C203.364 36.2977 202.303 36.0047 201.055 36.0047C200.015 36.0047 199.038 36.1931 198.123 36.5697C197.207 36.9046 196.417 37.3859 195.751 38.0137C195.086 38.6415 194.566 39.374 194.191 40.211C193.817 41.0481 193.63 41.9689 193.63 42.9734V62.8122H185.893Z" fill="white"/>
<path d="M160.896 63.44C158.192 63.44 155.738 62.6866 153.533 61.1799C151.328 59.6732 149.56 57.6223 148.229 55.0274C146.898 52.4324 146.232 49.4817 146.232 46.1752C146.232 42.8688 146.898 39.9181 148.229 37.3231C149.56 34.7282 151.37 32.6983 153.658 31.2334C155.946 29.7685 158.525 29.036 161.395 29.036C163.059 29.036 164.578 29.2872 165.951 29.7894C167.323 30.2498 168.53 30.9195 169.57 31.7984C170.61 32.6773 171.463 33.6818 172.128 34.8119C172.835 35.942 173.314 37.1557 173.563 38.4532L171.879 38.0137V29.7266H179.616V62.8122H171.816V54.9018L173.626 54.5879C173.335 55.718 172.794 56.8271 172.003 57.9153C171.255 58.9616 170.298 59.9034 169.133 60.7404C168.01 61.5357 166.741 62.1844 165.327 62.6866C163.954 63.1889 162.477 63.44 160.896 63.44ZM163.018 56.5969C164.807 56.5969 166.387 56.1574 167.76 55.2785C169.133 54.3996 170.194 53.1858 170.943 51.6372C171.733 50.0467 172.128 48.2261 172.128 46.1752C172.128 44.1663 171.733 42.3875 170.943 40.8389C170.194 39.2903 169.133 38.0765 167.76 37.1976C166.387 36.3186 164.807 35.8792 163.018 35.8792C161.229 35.8792 159.648 36.3186 158.275 37.1976C156.944 38.0765 155.904 39.2903 155.156 40.8389C154.407 42.3875 154.032 44.1663 154.032 46.1752C154.032 48.2261 154.407 50.0467 155.156 51.6372C155.904 53.1858 156.944 54.3996 158.275 55.2785C159.648 56.1574 161.229 56.5969 163.018 56.5969Z" fill="white"/>
<path d="M129.826 63.44C126.373 63.44 123.316 62.7076 120.653 61.2427C118.033 59.7778 115.973 57.7897 114.476 55.2785C113.02 52.7254 112.292 49.8165 112.292 46.5519C112.292 43.957 112.708 41.5922 113.54 39.4577C114.372 37.3231 115.516 35.4816 116.972 33.933C118.469 32.3425 120.237 31.1287 122.276 30.2917C124.356 29.4127 126.623 28.9733 129.077 28.9733C131.24 28.9733 133.258 29.3918 135.13 30.2289C137.002 31.066 138.624 32.217 139.997 33.6818C141.37 35.1049 142.41 36.8209 143.117 38.8299C143.866 40.797 144.22 42.9525 144.178 45.2963L144.116 47.9959H117.471L116.036 42.7223H137.688L136.69 43.7896V42.4084C136.565 41.1109 136.149 39.9809 135.442 39.0182C134.735 38.0137 133.82 37.2394 132.696 36.6953C131.615 36.1094 130.409 35.8164 129.077 35.8164C127.039 35.8164 125.313 36.214 123.898 37.0092C122.525 37.8045 121.485 38.9554 120.778 40.4622C120.071 41.9271 119.717 43.7686 119.717 45.9869C119.717 48.1215 120.154 49.984 121.028 51.5744C121.943 53.1649 123.212 54.3996 124.834 55.2785C126.498 56.1156 128.433 56.5341 130.637 56.5341C132.176 56.5341 133.591 56.283 134.88 55.7807C136.17 55.2785 137.564 54.3786 139.061 53.0812L142.868 58.4175C141.744 59.4639 140.455 60.3638 138.999 61.1171C137.584 61.8286 136.087 62.3937 134.506 62.8122C132.925 63.2307 131.365 63.44 129.826 63.44Z" fill="white"/>
<path opacity="0.7" fill-rule="evenodd" clip-rule="evenodd" d="M1.63993 10.8412C4.59877 4.24219 11.1264 0 18.3216 0H53.4337C61.2277 0 66.9466 7.36962 65.0563 14.9774L63.5749 19.8029H60.665C56.7992 19.8029 53.9606 16.1727 54.8929 12.4209C55.1302 11.4658 54.4122 10.5405 53.4337 10.5405H18.3216C15.2453 10.5405 12.4544 12.3543 11.1894 15.1757C8.85324 20.3859 12.6406 26.2855 18.3216 26.2855H54.4191C58.4584 26.2855 61.374 30.1527 60.2624 34.036L51.4968 64.659C49.2354 72.5592 42.0506 78 33.8795 78H17.5557C14.0422 78 11.5249 74.5884 12.5417 71.2046L20.8188 43.6587H32.0417L24.7212 67.4595H33.8795C37.3814 67.4595 40.4606 65.1277 41.4297 61.7419L48.5617 36.826H18.3216C5.03422 36.826 -3.82412 23.0275 1.63993 10.8412Z" fill="white"/>
<path fill-rule="evenodd" clip-rule="evenodd" d="M57.2781 44.4614L51.4967 64.6589C49.2354 72.5591 42.0506 77.9999 33.8794 77.9999H17.5557C14.0422 77.9999 11.5249 74.5882 12.5417 71.2044L20.8188 43.6586H32.0417L24.7212 67.4593H33.8794C33.9357 67.4593 33.9919 67.4587 34.048 67.4575L34.0477 67.4594C34.2583 67.4594 34.4777 67.4614 34.7054 67.4636C39.868 67.5124 49.2981 67.6016 57.2781 44.4614Z" fill="white"/>
<path fill-rule="evenodd" clip-rule="evenodd" d="M11.1511 15.2624C11.1637 15.2335 11.1764 15.2046 11.1894 15.1757C12.4544 12.3543 15.2453 10.5405 18.3216 10.5405H53.4337C54.4122 10.5405 55.1302 11.4658 54.8929 12.4209L53.0586 19.8028H63.5749L65.0563 14.9774C66.9466 7.36962 61.2277 0 53.4337 0H18.3216C11.1264 0 4.59877 4.24219 1.63993 10.8412C-3.10765 21.4296 2.95741 33.2351 13.3455 36.149C7.99196 27.7703 9.64914 18.6736 11.1511 15.2624Z" fill="white"/>
</svg>
