<svg width="42" height="42" viewBox="0 0 42 42" fill="none" xmlns="http://www.w3.org/2000/svg">
<path d="M36.0675 33.3515L36.1113 33.3165C36.1743 33.2411 36.2409 33.1687 36.3108 33.0995C37.2218 32.1852 38.384 31.5621 39.6498 31.3093C39.719 31.3059 39.7879 31.2983 39.8563 31.2865C40.2974 31.2177 40.7052 31.0099 41.02 30.6933C41.2582 30.4531 41.4355 30.1594 41.5369 29.8367C41.6383 29.5141 41.6609 29.1718 41.6029 28.8385C41.5448 28.5053 41.4078 28.1908 41.2033 27.9214C40.9987 27.652 40.7326 27.4356 40.4272 27.2901C40.1219 27.1447 39.7861 27.0745 39.448 27.0855C39.1099 27.0965 38.7794 27.1883 38.4841 27.3533C38.1888 27.5182 37.9373 27.7515 37.7507 28.0336C37.5641 28.3157 37.4478 28.6385 37.4115 28.9748C37.1704 30.2719 36.5405 31.4651 35.6055 32.396L35.399 32.6025C35.3029 32.693 35.2459 32.8176 35.2404 32.9495C35.2348 33.0814 35.2811 33.2103 35.3693 33.3086C35.4575 33.4069 35.5807 33.4667 35.7125 33.4754C35.8442 33.4841 35.9742 33.4409 36.0745 33.355L36.0693 33.3515H36.0675Z" fill="#0F6AEA"/>
<path d="M29.365 31.7258L29.4 31.7643C29.4214 31.7857 29.4448 31.8051 29.47 31.822L29.617 31.9655C30.5305 32.8755 31.1552 34.0375 31.409 35.3028C31.4151 35.448 31.4386 35.5919 31.479 35.7315C31.5793 36.0982 31.7764 36.4311 32.0497 36.6954C32.3229 36.9597 32.6622 37.1456 33.032 37.2337C33.4018 37.3218 33.7885 37.3088 34.1516 37.1961C34.5146 37.0833 34.8407 36.875 35.0955 36.593C35.3504 36.3109 35.5247 35.9655 35.6002 35.5929C35.6756 35.2203 35.6495 34.8343 35.5245 34.4753C35.3995 34.1163 35.1802 33.7975 34.8896 33.5524C34.5991 33.3072 34.2479 33.1448 33.873 33.082L33.7452 33.0645C32.447 32.8237 31.2526 32.1938 30.3205 31.2585L30.1157 31.052C30.0233 30.963 29.9006 30.9124 29.7723 30.9103C29.644 30.9081 29.5197 30.9546 29.4243 31.0405C29.329 31.1263 29.2697 31.245 29.2583 31.3728C29.247 31.5006 29.2845 31.628 29.3632 31.7293V31.7258H29.365Z" fill="#F64B07"/>
<path d="M30.9925 25.0215C30.9555 25.0534 30.922 25.0892 30.8928 25.1283L30.7528 25.277C29.8407 26.1903 28.678 26.8121 27.412 27.0638C27.3455 27.0638 27.2738 27.0778 27.2055 27.0865C26.7645 27.1565 26.3585 27.3648 26.0435 27.6798C25.8093 27.9113 25.6322 28.1941 25.5262 28.506C25.4203 28.8178 25.3884 29.15 25.4332 29.4763C25.4779 29.8026 25.598 30.114 25.7839 30.3858C25.9699 30.6576 26.2166 30.8824 26.5045 31.0423C26.7924 31.2023 27.1135 31.293 27.4426 31.3072C27.7716 31.3215 28.0994 31.259 28.4001 31.1246C28.7007 30.9902 28.966 30.7876 29.1748 30.5329C29.3836 30.2782 29.5302 29.9784 29.603 29.6573L29.6275 29.5295C29.6275 29.4875 29.6398 29.442 29.645 29.4018C29.8903 28.1029 30.5244 26.9092 31.4633 25.9788L31.6698 25.7723C31.7587 25.6798 31.8094 25.5571 31.8115 25.4288C31.8136 25.3005 31.7671 25.1762 31.6813 25.0809C31.5955 24.9855 31.4767 24.9262 31.3489 24.9148C31.2211 24.9035 31.0938 24.941 30.9925 25.0198V25.0215Z" fill="#FDC40A"/>
<path d="M37.7003 26.6525L37.6653 26.6123C37.6422 26.5912 37.6177 26.5719 37.5918 26.5545L37.4553 26.4233C36.5408 25.5119 35.9182 24.3489 35.6668 23.0825C35.6668 23.016 35.6545 22.9478 35.644 22.8778C35.5833 22.4982 35.4206 22.1423 35.1731 21.8482C34.9257 21.554 34.6029 21.3327 34.2394 21.2079C33.8759 21.0832 33.4852 21.0596 33.1093 21.1398C32.7334 21.2199 32.3864 21.4008 32.1054 21.6631C31.8244 21.9253 31.62 22.2591 31.5141 22.6285C31.4082 22.998 31.4048 23.3894 31.5042 23.7606C31.6037 24.1319 31.8022 24.4692 32.0786 24.7363C32.355 25.0034 32.6988 25.1903 33.0733 25.277C33.1135 25.277 33.1573 25.2945 33.1993 25.3015L33.327 25.319C34.6258 25.5599 35.8207 26.1897 36.7535 27.125C36.8235 27.195 36.89 27.265 36.96 27.3315C37.0525 27.4205 37.1752 27.4711 37.3034 27.4733C37.4317 27.4754 37.556 27.4289 37.6514 27.343C37.7468 27.2572 37.8061 27.1385 37.8174 27.0107C37.8288 26.8829 37.7913 26.7555 37.7125 26.6543L37.7003 26.6525Z" fill="#28B907"/>
<path d="M34.1495 14.6685C33.5464 13.4366 32.7513 12.3083 31.794 11.326C29.3353 8.785 25.893 7.14875 22.099 6.7165C21.4358 6.6395 20.769 6.59925 20.0988 6.5975C19.4565 6.5975 18.8143 6.6325 18.1773 6.7025C14.3675 7.11725 10.9078 8.7465 8.42975 11.291C7.46956 12.2697 6.67042 13.3943 6.062 14.623C5.26499 16.2273 4.84935 17.9941 4.8475 19.7855C4.8544 22.1358 5.55977 24.431 6.874 26.3795C7.7595 27.6745 8.8165 28.847 10.01 29.862L9.401 32.382L9.226 33.0925C9.17649 33.208 9.14691 33.3311 9.1385 33.4565C9.13215 33.493 9.12806 33.5298 9.12625 33.5668C9.12466 33.7724 9.1776 33.9748 9.27966 34.1533C9.38172 34.3319 9.52927 34.4802 9.70728 34.5831C9.8853 34.6861 10.0874 34.74 10.2931 34.7395C10.4987 34.7389 10.7005 34.6839 10.878 34.58H10.8955C10.92 34.5625 10.948 34.5503 10.969 34.5345L15.3265 32.3435C16.2558 32.606 17.2078 32.7898 18.1703 32.8913C19.4761 33.0342 20.7939 33.0307 22.099 32.8808C23.4104 32.7299 24.6999 32.428 25.942 31.9813C25.4852 31.8316 25.0929 31.5308 24.8298 31.1284C24.5668 30.726 24.4486 30.246 24.4948 29.7675C23.6093 30.0475 22.6975 30.24 21.7735 30.345C20.6807 30.473 19.5769 30.476 18.4835 30.3538L18.151 30.31C17.4219 30.2139 16.7011 30.0623 15.995 29.8568C15.8035 29.7962 15.6017 29.7753 15.4019 29.7955C15.2021 29.8157 15.0085 29.8764 14.833 29.974L14.742 30.023L11.949 31.675C11.9127 31.7 11.8704 31.7151 11.8265 31.7188C11.7788 31.7174 11.7336 31.6974 11.7006 31.663C11.6675 31.6286 11.6493 31.5827 11.6498 31.535L11.753 31.1238L11.872 30.6688L12.285 29.0973C12.3577 28.8729 12.3578 28.6314 12.2852 28.407C12.2126 28.1827 12.0711 27.987 11.8808 27.8478C11.4876 27.5596 11.1141 27.2456 10.7625 26.908C10.1643 26.3459 9.63182 25.7177 9.17525 25.0355C8.13774 23.5017 7.57753 21.695 7.56525 19.8433C7.567 18.431 7.896 17.0363 8.52775 15.771C9.01598 14.7858 9.6568 13.8839 10.4265 13.0988C12.4618 11.0093 15.3265 9.66875 18.4853 9.324C19.5789 9.20559 20.6823 9.20852 21.7753 9.33275C24.9218 9.68975 27.7673 11.039 29.7903 13.1268C30.5578 13.9164 31.1957 14.8224 31.6803 15.8113C32.298 17.0678 32.62 18.4485 32.62 19.8485C32.62 19.992 32.62 20.1373 32.606 20.2808C33.011 20.0328 33.4876 19.9282 33.9593 19.9837C34.4309 20.0393 34.8702 20.2517 35.2065 20.587C35.2415 20.622 35.273 20.6623 35.3063 20.699C35.4687 18.6215 35.0692 16.5385 34.1495 14.6685Z" fill="#0C6AED"/>
</svg>
