<svg width="78" height="78" viewBox="0 0 78 78" fill="none" xmlns="http://www.w3.org/2000/svg">
<path fill-rule="evenodd" clip-rule="evenodd" d="M7.63993 10.8412C10.5988 4.24219 17.1264 0 24.3216 0H59.4337C67.2277 0 72.9466 7.36962 71.0563 14.9774L69.5749 19.8029H66.665C62.7992 19.8029 59.9606 16.1727 60.8929 12.4209C61.1302 11.4658 60.4122 10.5405 59.4337 10.5405H24.3216C21.2453 10.5405 18.4544 12.3543 17.1894 15.1757C14.8532 20.3859 18.6406 26.2855 24.3216 26.2855H60.4191C64.4584 26.2855 67.3739 30.1527 66.2624 34.036L57.4968 64.659C55.2354 72.5592 48.0506 78 39.8795 78H23.5557C20.0422 78 17.5249 74.5884 18.5417 71.2046L26.8188 43.6587H38.0417L30.7212 67.4595H39.8795C43.3814 67.4595 46.4606 65.1277 47.4297 61.7419L54.5617 36.826H24.3216C11.0342 36.826 2.17588 23.0275 7.63993 10.8412Z" fill="#33BDFF"/>
<path fill-rule="evenodd" clip-rule="evenodd" d="M63.2781 44.4614L57.4967 64.6589C55.2354 72.5591 48.0506 77.9999 39.8794 77.9999H23.5557C20.0422 77.9999 17.5249 74.5883 18.5417 71.2045L26.8188 43.6587H38.0417L30.7212 67.4594H39.8794C39.9357 67.4594 39.9919 67.4588 40.048 67.4576L40.0477 67.4594C40.2583 67.4594 40.4777 67.4615 40.7054 67.4636C45.868 67.5125 55.2981 67.6016 63.2781 44.4614Z" fill="#5BDDE4"/>
<path fill-rule="evenodd" clip-rule="evenodd" d="M17.1511 15.2624C17.1637 15.2335 17.1764 15.2046 17.1894 15.1757C18.4544 12.3543 21.2453 10.5405 24.3216 10.5405H59.4337C60.4122 10.5405 61.1302 11.4658 60.8929 12.4209L59.0586 19.8028H69.5749L71.0563 14.9774C72.9466 7.36962 67.2277 0 59.4337 0H24.3216C17.1264 0 10.5988 4.24219 7.63993 10.8412C2.89235 21.4296 8.95741 33.2351 19.3455 36.149C13.992 27.7703 15.6491 18.6736 17.1511 15.2624Z" fill="#315CEC"/>
</svg>
